<svg width="7436" height="1223" viewBox="0 0 7436 1223" fill="none" xmlns="http://www.w3.org/2000/svg">
<path d="M851.985 134.432V544.712L785.642 611.055L851.985 679.144V1089.42L719.299 1222.11H-9.27133e-05V963.721H71.5806V260.135H-9.27133e-05V0.000160891H719.299L851.985 134.432ZM515.032 260.135H363.141V481.861H515.032L560.425 438.214V305.528L515.032 260.135ZM515.032 963.721L560.425 918.329V785.642L515.032 741.996H364.887V963.721H515.032ZM1126.67 0.000160891H1639.96L1774.39 136.178V1087.68L1639.96 1222.11H1126.67L993.987 1089.42V134.432L1126.67 0.000160891ZM1482.83 927.058V296.798L1437.44 260.135H1329.19L1285.55 296.798V927.058L1329.19 963.721H1437.44L1482.83 927.058ZM2917.2 260.135H2807.21L2632.62 611.055L2807.21 963.721H2917.2V1222.11H2478.99V963.721H2517.4L2407.41 743.742L2295.67 963.721H2334.08V1222.11H1897.61V963.721H2005.86L2182.19 611.055L2005.86 260.135H1897.61V0.000160891H2334.08V260.135H2295.67L2407.41 480.115L2517.4 260.135H2478.99V0.000160891H2917.2V260.135ZM4376.15 392.821H4084.59V296.798L4039.2 260.135H3930.95L3887.31 296.798V445.197L3932.7 481.861H4241.72L4376.15 614.547V1089.42L4241.72 1222.11H3730.18L3595.75 1087.68V831.035H3887.31V927.058L3930.95 963.721H4039.2L4084.59 927.058V778.659L4039.2 741.996H3728.43L3595.75 609.309V134.432L3728.43 0.000160891H4241.72L4376.15 136.178V392.821ZM5371.86 392.821H5080.3V260.135H4883.01V481.861H5080.3V741.996H4883.01V963.721H5080.3V831.035H5371.86V1222.11H4518.12V963.721H4589.71V260.135H4518.12V0.000160891H5371.86V392.821ZM6388.5 963.721H6461.83V1222.11H6023.61V963.721H6096.94L6077.73 851.986H5897.91L5878.7 963.721H5950.28V1222.11H5513.82V963.721H5585.4L5728.56 260.135H5656.98V0.000160891H6316.92V260.135H6245.34L6388.5 963.721ZM5925.84 686.128H6048.05L5986.95 333.462L5925.84 686.128ZM7435.35 392.821H7178.71V260.135H7107.13V963.721H7178.71V1222.11H6742.24V963.721H6813.82V260.135H6742.24V392.821H6487.35V0.000160891H7435.35V392.821Z" fill="white"/>
</svg>
